<svg id="visual" viewBox="0 0 192 192" width="192" height="192" xmlns="http://www.w3.org/2000/svg" xmlns:xlink="http://www.w3.org/1999/xlink" version="1.1"><rect x="0" y="0" width="192" height="192" fill="#FFF"></rect><path d="M0 89L8 87C16 85 32 81 48 86.5C64 92 80 107 96 113.2C112 119.3 128 116.7 144 109.7C160 102.7 176 91.3 184 85.7L192 80L192 193L184 193C176 193 160 193 144 193C128 193 112 193 96 193C80 193 64 193 48 193C32 193 16 193 8 193L0 193Z" fill="#7fd0fd"></path><path d="M0 146L8 145.3C16 144.7 32 143.3 48 142.2C64 141 80 140 96 135.8C112 131.7 128 124.3 144 122C160 119.7 176 122.3 184 123.7L192 125L192 193L184 193C176 193 160 193 144 193C128 193 112 193 96 193C80 193 64 193 48 193C32 193 16 193 8 193L0 193Z" fill="#50bff2"></path></svg>