<svg id="visual" viewBox="0 0 960 540" width="960" height="540" xmlns="http://www.w3.org/2000/svg" xmlns:xlink="http://www.w3.org/1999/xlink" version="1.1"><rect x="0" y="0" width="960" height="540" fill="#FFF"></rect><path d="M0 359L22.8 366.7C45.7 374.3 91.3 389.7 137 393.5C182.7 397.3 228.3 389.7 274 385.7C319.7 381.7 365.3 381.3 411.2 383.3C457 385.3 503 389.7 548.8 395.8C594.7 402 640.3 410 686 413.2C731.7 416.3 777.3 414.7 823 413.3C868.7 412 914.3 411 937.2 410.5L960 410L960 541L937.2 541C914.3 541 868.7 541 823 541C777.3 541 731.7 541 686 541C640.3 541 594.7 541 548.8 541C503 541 457 541 411.2 541C365.3 541 319.7 541 274 541C228.3 541 182.7 541 137 541C91.3 541 45.7 541 22.8 541L0 541Z" fill="#a2d9ff"></path><path d="M0 417L22.8 418.5C45.7 420 91.3 423 137 430.7C182.7 438.3 228.3 450.7 274 448.2C319.7 445.7 365.3 428.3 411.2 417.5C457 406.7 503 402.3 548.8 410.8C594.7 419.3 640.3 440.7 686 440.5C731.7 440.3 777.3 418.7 823 415.5C868.7 412.3 914.3 427.7 937.2 435.3L960 443L960 541L937.2 541C914.3 541 868.7 541 823 541C777.3 541 731.7 541 686 541C640.3 541 594.7 541 548.8 541C503 541 457 541 411.2 541C365.3 541 319.7 541 274 541C228.3 541 182.7 541 137 541C91.3 541 45.7 541 22.8 541L0 541Z" fill="#7eace9"></path><path d="M0 449L22.8 447.3C45.7 445.7 91.3 442.3 137 443.3C182.7 444.3 228.3 449.7 274 458.5C319.7 467.3 365.3 479.7 411.2 483.5C457 487.3 503 482.7 548.8 477.5C594.7 472.3 640.3 466.7 686 466.2C731.7 465.7 777.3 470.3 823 473.5C868.7 476.7 914.3 478.3 937.2 479.2L960 480L960 541L937.2 541C914.3 541 868.7 541 823 541C777.3 541 731.7 541 686 541C640.3 541 594.7 541 548.8 541C503 541 457 541 411.2 541C365.3 541 319.7 541 274 541C228.3 541 182.7 541 137 541C91.3 541 45.7 541 22.8 541L0 541Z" fill="#737cca"></path></svg>